<svg xmlns="http://www.w3.org/2000/svg" xmlns:xlink="http://www.w3.org/1999/xlink" width="840" height="581.04"><rect width="840" height="581.04" rx="5" ry="5" class="a"></rect><svg y="0%" x="0%"><circle cx="20" cy="20" r="6" class="b"></circle><circle cx="40" cy="20" r="6" class="c"></circle><circle cx="60" cy="20" r="6" class="d"></circle></svg><svg height="521.04" viewBox="0 0 80 52.104" width="800" x="15" xmlns="http://www.w3.org/2000/svg" xmlns:xlink="http://www.w3.org/1999/xlink" y="50"><style>.a{fill:rgb(22,27,34)}.b{fill:#ff5f58}.c{fill:#ffbd2e}.d{fill:#18c132}.e{font-family:'Fira Code',Monaco,Consolas,Menlo,'Bitstream Vera Sans Mono','Powerline Symbols',monospace}.f{fill:transparent}.g{fill:rgb(201,209,217)}.h{fill:rgb(148,148,148);white-space:pre}.i{fill:rgb(201,209,217);white-space:pre}.j{fill:rgb(148,148,148);font-style:italic;white-space:pre}.k{fill:rgb(188,188,188);white-space:pre}.l{fill:rgb(220,50,47);white-space:pre}</style><g font-family="&#x27;Fira Code&#x27;,Monaco,Consolas,Menlo,&#x27;Bitstream Vera Sans Mono&#x27;,&#x27;Powerline Symbols&#x27;,monospace" font-size="1.67" class="e"><defs><symbol id="a"><rect height="24" width="80" x="0" y="0" class="f"></rect></symbol><symbol id="b"><rect height="2.171" width="1.1022" class="g"></rect></symbol></defs><rect height="52.104" width="80" class="a"></rect><svg x="0" y="0" width="80"><svg x="0"><use xlink:href="#a"></use><use xlink:href="#b" x="-0.0040000000000000036" y="17.343"></use><text font-size="1.67" x="0" y="1.67" class="h">#</text><text font-size="1.67" x="2.004" y="1.67" class="h">A</text><text font-size="1.67" x="4.008" y="1.67" class="h">tibble:</text><text font-size="1.67" x="12.024" y="1.67" class="h">5</text><text font-size="1.67" x="14.027999999999999" y="1.67" class="h">×</text><text font-size="1.67" x="16.032" y="1.67" class="h">1</text><text font-size="1.67" x="9.017999999999999" y="3.8409999999999997" class="i">dummy</text><text font-size="1.67" x="2.004" y="6.012" class="j">&lt;hlght&lt;int&gt;&gt;</text><text font-size="1.67" x="0" y="8.183" class="k">1</text><text font-size="1.67" x="7.013999999999999" y="8.183" class="i">1</text><text font-size="1.67" x="9.017999999999999" y="8.183" class="i">[Yes]</text><text font-size="1.67" x="0" y="10.354" class="k">2</text><text font-size="1.67" x="8.016" y="10.354" class="i">0</text><text font-size="1.67" x="10.02" y="10.354" class="i">[No]</text><text font-size="1.67" x="0" y="12.525" class="k">3</text><text font-size="1.67" x="12.024" y="12.525" class="l">NA</text><text font-size="1.67" x="0" y="14.696" class="k">4</text><text font-size="1.67" x="7.013999999999999" y="14.696" class="i">1</text><text font-size="1.67" x="9.017999999999999" y="14.696" class="i">[Yes]</text><text font-size="1.67" x="0" y="16.866999999999997" class="k">5</text><text font-size="1.67" x="8.016" y="16.866999999999997" class="i">0</text><text font-size="1.67" x="10.02" y="16.866999999999997" class="i">[No]</text></svg></svg></g></svg></svg>