<svg width="200" height="200" viewBox="0 0 200 200" fill="none" xmlns="http://www.w3.org/2000/svg">
<path d="M100 0L186.603 50V150L100 200L13.3975 150V50L100 0Z" fill="#1E1E1E"/>
<path d="M100 0L186.603 50V150L100 200L13.3975 150V50L100 0Z" fill="#1E1E1E"/>
<rect x="16" y="107" width="97" height="7" fill="#FB32D7" fill-opacity="0.5"/>
<rect x="23.75" y="147.819" width="170.1" height="7" transform="rotate(-42 23.75 147.819)" fill="#FB32D7" fill-opacity="0.5"/>
<rect x="34.3008" y="40.1211" width="179.058" height="7" transform="rotate(33 34.3008 40.1211)" fill="#FB32D7" fill-opacity="0.5"/>
<rect x="183.43" y="112.751" width="169.203" height="7" transform="rotate(169 183.43 112.751)" fill="#FB32D7" fill-opacity="0.5"/>
<rect x="179.496" y="101.923" width="134.378" height="7" transform="rotate(-141 179.496 101.923)" fill="#FB32D7" fill-opacity="0.5"/>
<rect x="54.2812" y="167.221" width="140.13" height="7" transform="rotate(-25 54.2812 167.221)" fill="#FB32D7" fill-opacity="0.5"/>
<rect x="43.6602" y="40.3809" width="161.039" height="7" transform="rotate(55 43.6602 40.3809)" fill="#FB32D7" fill-opacity="0.5"/>
<rect x="13" y="85.2212" width="140.13" height="7" transform="rotate(-25 13 85.2212)" fill="#FB32D7" fill-opacity="0.5"/>
<rect x="137.271" y="171.895" width="166.697" height="7" transform="rotate(-109 137.271 171.895)" fill="#FB32D7" fill-opacity="0.5"/>
<g filter="url(#filter0_d_198_5659)">
<path fill-rule="evenodd" clip-rule="evenodd" d="M156.52 81.9599L184.404 48.7299L158.69 33.8843L134.183 63.0912C134.162 63.1156 134.141 63.14 134.121 63.1645C130.554 67.4159 129.819 73.1016 131.717 77.9268L115.739 96.9691C115.006 97.8425 114.856 99.0109 115.247 100.002L109.955 106.308L118.053 113.104L123.344 106.798C124.389 107.013 125.515 106.663 126.249 105.788L142.151 86.8376C147.302 87.9767 152.895 86.2805 156.52 81.9597L156.52 81.9599ZM109.999 111.999L109.955 106.308L118.053 113.104L113.528 114.298L109.999 111.999Z" fill="#DC77CA"/>
</g>
<rect x="115.739" y="99.4175" width="10.5715" height="8.99698" transform="rotate(40 115.739 99.4175)" fill="#FB32D7"/>
<path d="M110 112L109.956 106.31L118.054 113.105L113.529 114.299L110 112Z" fill="#FB32D7"/>
<path fill-rule="evenodd" clip-rule="evenodd" d="M112.706 108.617L110 112L109.956 106.31L112.706 108.617ZM112.706 108.617L109.956 106.31L115.739 99.4175L116.963 100.444L118 102L112.706 108.617Z" fill="#FA0ACF"/>
<path fill-rule="evenodd" clip-rule="evenodd" d="M184.402 48.7299L156.519 81.9599L156.518 81.9597C152.893 86.2805 147.3 87.9767 142.149 86.8376L126.248 105.788C125.183 107.058 123.29 107.223 122.021 106.158L116.107 101.196C114.838 100.131 114.672 98.2383 115.737 96.9691L131.715 77.9268C129.817 73.1016 130.552 67.4159 134.119 63.1645C134.14 63.14 134.16 63.1156 134.181 63.0912L158.688 33.8843L184.402 48.7299Z" fill="#FC7FE7"/>
<path d="M17.3975 52.3094L100 4.6188L182.603 52.3094V147.691L100 195.381L17.3975 147.691V52.3094Z" stroke="#B51D9B" stroke-width="8"/>
<g filter="url(#filter1_d_198_5659)">
<path d="M83.104 135.727L79.8622 145H76.9645L73.7226 135.727H76.4392L78.365 142.362H78.4616L80.3814 135.727H83.104ZM86.8218 132.636V145H84.2501V132.636H86.8218ZM88.7119 145V135.727H91.2836V145H88.7119ZM90.0038 134.532C89.6215 134.532 89.2935 134.405 89.0198 134.152C88.7501 133.894 88.6153 133.586 88.6153 133.228C88.6153 132.874 88.7501 132.57 89.0198 132.316C89.2935 132.059 89.6215 131.93 90.0038 131.93C90.3861 131.93 90.7121 132.059 90.9818 132.316C91.2555 132.57 91.3923 132.874 91.3923 133.228C91.3923 133.586 91.2555 133.894 90.9818 134.152C90.7121 134.405 90.3861 134.532 90.0038 134.532ZM97.3513 148.67C96.5182 148.67 95.8038 148.556 95.2082 148.326C94.6166 148.101 94.1457 147.793 93.7955 147.403C93.4454 147.012 93.218 146.574 93.1134 146.087L95.4919 145.767C95.5644 145.952 95.6791 146.125 95.836 146.286C95.993 146.447 96.2003 146.576 96.4578 146.672C96.7194 146.773 97.0374 146.823 97.4117 146.823C97.9711 146.823 98.4319 146.686 98.7941 146.413C99.1604 146.143 99.3435 145.69 99.3435 145.054V143.358H99.2348C99.1221 143.616 98.9531 143.859 98.7277 144.088C98.5023 144.318 98.2126 144.505 97.8584 144.65C97.5042 144.795 97.0816 144.867 96.5906 144.867C95.8944 144.867 95.2605 144.706 94.689 144.384C94.1215 144.058 93.6688 143.561 93.3307 142.893C92.9967 142.221 92.8296 141.372 92.8296 140.346C92.8296 139.295 93.0007 138.418 93.3428 137.713C93.6849 137.009 94.1396 136.482 94.7071 136.132C95.2786 135.782 95.9044 135.607 96.5846 135.607C97.1038 135.607 97.5384 135.695 97.8886 135.872C98.2387 136.045 98.5204 136.263 98.7338 136.524C98.9511 136.782 99.1181 137.035 99.2348 137.285H99.3314V135.727H101.885V145.091C101.885 145.879 101.692 146.539 101.305 147.071C100.919 147.602 100.384 148 99.6997 148.266C99.0195 148.536 98.2367 148.67 97.3513 148.67ZM97.4056 142.935C97.8202 142.935 98.1703 142.833 98.4561 142.627C98.7458 142.418 98.9672 142.12 99.1201 141.734C99.2771 141.344 99.3556 140.877 99.3556 140.333C99.3556 139.79 99.2791 139.319 99.1262 138.921C98.9732 138.518 98.7519 138.206 98.4621 137.985C98.1723 137.764 97.8202 137.653 97.4056 137.653C96.983 137.653 96.6269 137.768 96.3371 137.997C96.0473 138.223 95.828 138.536 95.6791 138.939C95.5302 139.341 95.4557 139.806 95.4557 140.333C95.4557 140.869 95.5302 141.332 95.6791 141.722C95.832 142.108 96.0513 142.408 96.3371 142.621C96.6269 142.831 96.983 142.935 97.4056 142.935ZM106.333 139.639V145H103.762V132.636H106.261V137.363H106.37C106.579 136.816 106.917 136.387 107.384 136.077C107.851 135.763 108.436 135.607 109.14 135.607C109.784 135.607 110.346 135.747 110.825 136.029C111.308 136.307 111.682 136.707 111.948 137.23C112.217 137.75 112.35 138.371 112.346 139.096V145H109.774V139.555C109.778 138.983 109.633 138.538 109.34 138.221C109.05 137.903 108.643 137.744 108.12 137.744C107.77 137.744 107.46 137.818 107.191 137.967C106.925 138.116 106.716 138.333 106.563 138.619C106.414 138.901 106.337 139.241 106.333 139.639ZM119.132 135.727V137.659H113.548V135.727H119.132ZM114.816 133.506H117.387V142.151C117.387 142.388 117.424 142.573 117.496 142.706C117.569 142.835 117.669 142.925 117.798 142.978C117.931 143.03 118.084 143.056 118.257 143.056C118.378 143.056 118.498 143.046 118.619 143.026C118.74 143.002 118.832 142.984 118.897 142.972L119.301 144.885C119.172 144.926 118.991 144.972 118.758 145.024C118.524 145.08 118.241 145.115 117.907 145.127C117.287 145.151 116.744 145.068 116.277 144.879C115.814 144.69 115.454 144.396 115.196 143.998C114.938 143.599 114.812 143.096 114.816 142.489V133.506ZM120.637 145V135.727H123.131V137.345H123.227C123.396 136.77 123.68 136.335 124.078 136.041C124.477 135.743 124.936 135.594 125.455 135.594C125.584 135.594 125.722 135.603 125.871 135.619C126.02 135.635 126.151 135.657 126.264 135.685V137.967C126.143 137.931 125.976 137.899 125.763 137.87C125.549 137.842 125.354 137.828 125.177 137.828C124.799 137.828 124.461 137.911 124.163 138.076C123.869 138.237 123.636 138.462 123.463 138.752C123.294 139.042 123.209 139.376 123.209 139.754V145H120.637Z" fill="#FFFBFC"/>
</g>
<defs>
<filter id="filter0_d_198_5659" x="101.955" y="33.8843" width="90.4482" height="96.4136" filterUnits="userSpaceOnUse" color-interpolation-filters="sRGB">
<feFlood flood-opacity="0" result="BackgroundImageFix"/>
<feColorMatrix in="SourceAlpha" type="matrix" values="0 0 0 0 0 0 0 0 0 0 0 0 0 0 0 0 0 0 127 0" result="hardAlpha"/>
<feOffset dy="8"/>
<feGaussianBlur stdDeviation="4"/>
<feComposite in2="hardAlpha" operator="out"/>
<feColorMatrix type="matrix" values="0 0 0 0 0.117647 0 0 0 0 0.117647 0 0 0 0 0.117647 0 0 0 0.5 0"/>
<feBlend mode="normal" in2="BackgroundImageFix" result="effect1_dropShadow_198_5659"/>
<feBlend mode="normal" in="SourceGraphic" in2="effect1_dropShadow_198_5659" result="shape"/>
</filter>
<filter id="filter1_d_198_5659" x="65.7227" y="131.93" width="68.541" height="32.7404" filterUnits="userSpaceOnUse" color-interpolation-filters="sRGB">
<feFlood flood-opacity="0" result="BackgroundImageFix"/>
<feColorMatrix in="SourceAlpha" type="matrix" values="0 0 0 0 0 0 0 0 0 0 0 0 0 0 0 0 0 0 127 0" result="hardAlpha"/>
<feOffset dy="8"/>
<feGaussianBlur stdDeviation="4"/>
<feComposite in2="hardAlpha" operator="out"/>
<feColorMatrix type="matrix" values="0 0 0 0 0.117647 0 0 0 0 0.117647 0 0 0 0 0.117647 0 0 0 0.75 0"/>
<feBlend mode="normal" in2="BackgroundImageFix" result="effect1_dropShadow_198_5659"/>
<feBlend mode="normal" in="SourceGraphic" in2="effect1_dropShadow_198_5659" result="shape"/>
</filter>
</defs>
</svg>
