<svg xmlns="http://www.w3.org/2000/svg" xmlns:xlink="http://www.w3.org/1999/xlink" width="840" height="105.13"><rect width="840" height="105.13" rx="0" ry="0" class="a"></rect><svg height="65.13" viewBox="0 0 80 6.513" width="800" x="20" xmlns="http://www.w3.org/2000/svg" xmlns:xlink="http://www.w3.org/1999/xlink" y="20"><style>.a{fill:rgb(247,247,247)}.b{font-family:'Fira Code',Monaco,Consolas,Menlo,'Bitstream Vera Sans Mono','Powerline Symbols',monospace}.c{fill:transparent}.d{fill:rgb(101,123,131);white-space:pre}</style><g font-family="&#x27;Fira Code&#x27;,Monaco,Consolas,Menlo,&#x27;Bitstream Vera Sans Mono&#x27;,&#x27;Powerline Symbols&#x27;,monospace" font-size="1.67" class="b"><defs><symbol id="a"><rect height="3" width="80" x="0" y="0" class="c"></rect></symbol></defs><rect height="6.513" width="80" class="a"></rect><svg x="0" y="0" width="80"><svg x="0"><use xlink:href="#a"></use><text font-size="1.67" x="0" y="1.67" class="d">Error</text><text font-size="1.67" x="6.012" y="1.67" class="d">in</text><text font-size="1.67" x="9.017999999999999" y="1.67" class="d">loadNamespace(x)</text><text font-size="1.67" x="26.052" y="1.67" class="d">:</text><text font-size="1.67" x="28.055999999999997" y="1.67" class="d">there</text><text font-size="1.67" x="34.068" y="1.67" class="d">is</text><text font-size="1.67" x="37.074" y="1.67" class="d">no</text><text font-size="1.67" x="40.08" y="1.67" class="d">package</text><text font-size="1.67" x="48.096" y="1.67" class="d">called</text><text font-size="1.67" x="55.10999999999999" y="1.67" class="d">‘vlightr’</text><text font-size="1.67" x="0" y="3.8409999999999997" class="d">[1]</text><text font-size="1.67" x="5.01" y="3.8409999999999997" class="d">1</text><text font-size="1.67" x="8.016" y="3.8409999999999997" class="d">0</text><text font-size="1.67" x="10.02" y="3.8409999999999997" class="d">NA</text><text font-size="1.67" x="14.027999999999999" y="3.8409999999999997" class="d">1</text><text font-size="1.67" x="17.034" y="3.8409999999999997" class="d">1</text><text font-size="1.67" x="20.04" y="3.8409999999999997" class="d">0</text><text font-size="1.67" x="23.045999999999996" y="3.8409999999999997" class="d">1</text><text font-size="1.67" x="0" y="6.012" class="d">Error</text><text font-size="1.67" x="6.012" y="6.012" class="d">in</text><text font-size="1.67" x="9.017999999999999" y="6.012" class="d">print(x_hl)</text><text font-size="1.67" x="21.041999999999998" y="6.012" class="d">:</text><text font-size="1.67" x="23.045999999999996" y="6.012" class="d">object</text><text font-size="1.67" x="30.059999999999995" y="6.012" class="d">&#x27;x_hl&#x27;</text><text font-size="1.67" x="37.074" y="6.012" class="d">not</text><text font-size="1.67" x="41.082" y="6.012" class="d">found</text></svg></svg></g></svg></svg>