<svg xmlns="http://www.w3.org/2000/svg" xmlns:xlink="http://www.w3.org/1999/xlink" width="840" height="213.67999999999998"><rect width="840" height="213.67999999999998" rx="0" ry="0" class="a"></rect><svg height="173.67999999999998" viewBox="0 0 80 17.368" width="800" x="20" xmlns="http://www.w3.org/2000/svg" xmlns:xlink="http://www.w3.org/1999/xlink" y="20"><style>.a{fill:rgb(22,27,34)}.b{font-family:'Fira Code',Monaco,Consolas,Menlo,'Bitstream Vera Sans Mono','Powerline Symbols',monospace}.c{fill:transparent}.d{fill:rgb(201,209,217);white-space:pre}</style><g font-family="&#x27;Fira Code&#x27;,Monaco,Consolas,Menlo,&#x27;Bitstream Vera Sans Mono&#x27;,&#x27;Powerline Symbols&#x27;,monospace" font-size="1.67" class="b"><defs><symbol id="a"><rect height="8" width="80" x="0" y="0" class="c"></rect></symbol></defs><rect height="17.368" width="80" class="a"></rect><svg x="0" y="0" width="80"><svg x="0"><use xlink:href="#a"></use><text font-size="1.67" x="0" y="1.67" class="d">&gt;</text><text font-size="1.67" x="2.004" y="1.67" class="d">x</text><text font-size="1.67" x="4.008" y="1.67" class="d">&lt;-</text><text font-size="1.67" x="7.013999999999999" y="1.67" class="d">c(1L,</text><text font-size="1.67" x="13.026" y="1.67" class="d">0L,</text><text font-size="1.67" x="17.034" y="1.67" class="d">NA,</text><text font-size="1.67" x="21.041999999999998" y="1.67" class="d">1L)</text><text font-size="1.67" x="0" y="3.8409999999999997" class="d">&gt;</text><text font-size="1.67" x="2.004" y="3.8409999999999997" class="d">x_hl</text><text font-size="1.67" x="7.013999999999999" y="3.8409999999999997" class="d">&lt;-</text><text font-size="1.67" x="10.02" y="3.8409999999999997" class="d">highlight(x,</text><text font-size="1.67" x="23.045999999999996" y="3.8409999999999997" class="d">is.na,</text><text font-size="1.67" x="30.059999999999995" y="3.8409999999999997" class="d">color(&quot;red&quot;))</text><text font-size="1.67" x="0" y="6.012" class="d">Error</text><text font-size="1.67" x="6.012" y="6.012" class="d">in</text><text font-size="1.67" x="9.017999999999999" y="6.012" class="d">highlight(x,</text><text font-size="1.67" x="22.043999999999997" y="6.012" class="d">is.na,</text><text font-size="1.67" x="29.058" y="6.012" class="d">color(&quot;red&quot;))</text><text font-size="1.67" x="43.086" y="6.012" class="d">:</text><text font-size="1.67" x="2.004" y="8.183" class="d">could</text><text font-size="1.67" x="8.016" y="8.183" class="d">not</text><text font-size="1.67" x="12.024" y="8.183" class="d">find</text><text font-size="1.67" x="17.034" y="8.183" class="d">function</text><text font-size="1.67" x="26.052" y="8.183" class="d">&quot;highlight&quot;</text><text font-size="1.67" x="0" y="10.354" class="d">&gt;</text><text font-size="1.67" x="2.004" y="10.354" class="d">print(x)</text><text font-size="1.67" x="0" y="12.525" class="d">[1]</text><text font-size="1.67" x="5.01" y="12.525" class="d">1</text><text font-size="1.67" x="8.016" y="12.525" class="d">0</text><text font-size="1.67" x="10.02" y="12.525" class="d">NA</text><text font-size="1.67" x="14.027999999999999" y="12.525" class="d">1</text><text font-size="1.67" x="0" y="14.696" class="d">&gt;</text><text font-size="1.67" x="2.004" y="14.696" class="d">print(x_hl)</text><text font-size="1.67" x="0" y="16.866999999999997" class="d">Error</text><text font-size="1.67" x="6.012" y="16.866999999999997" class="d">in</text><text font-size="1.67" x="9.017999999999999" y="16.866999999999997" class="d">print(x_hl)</text><text font-size="1.67" x="21.041999999999998" y="16.866999999999997" class="d">:</text><text font-size="1.67" x="23.045999999999996" y="16.866999999999997" class="d">object</text><text font-size="1.67" x="30.059999999999995" y="16.866999999999997" class="d">&#x27;x_hl&#x27;</text><text font-size="1.67" x="37.074" y="16.866999999999997" class="d">not</text><text font-size="1.67" x="41.082" y="16.866999999999997" class="d">found</text></svg></svg></g></svg></svg>