<svg xmlns="http://www.w3.org/2000/svg" xmlns:xlink="http://www.w3.org/1999/xlink" width="840" height="365.65"><rect width="840" height="365.65" rx="0" ry="0" class="a"></rect><svg height="325.65" viewBox="0 0 80 32.565" width="800" x="20" xmlns="http://www.w3.org/2000/svg" xmlns:xlink="http://www.w3.org/1999/xlink" y="20"><style>.a{fill:rgb(247,247,247)}.b{font-family:'Fira Code',Monaco,Consolas,Menlo,'Bitstream Vera Sans Mono','Powerline Symbols',monospace}.c{fill:transparent}.d{fill:rgb(148,148,148);white-space:pre}.e{fill:rgb(101,123,131);white-space:pre}.f{fill:rgb(148,148,148);font-style:italic;white-space:pre}.g{fill:rgb(188,188,188);white-space:pre}.h{fill:rgb(219,171,121)}</style><g font-family="&#x27;Fira Code&#x27;,Monaco,Consolas,Menlo,&#x27;Bitstream Vera Sans Mono&#x27;,&#x27;Powerline Symbols&#x27;,monospace" font-size="1.67" class="b"><defs><symbol id="a"><rect height="15" width="80" x="0" y="0" class="c"></rect></symbol></defs><rect height="32.565" width="80" class="a"></rect><svg x="0" y="0" width="80"><svg x="0"><use xlink:href="#a"></use><text font-size="1.67" x="0" y="1.67" class="d">#</text><text font-size="1.67" x="2.004" y="1.67" class="d">A</text><text font-size="1.67" x="4.008" y="1.67" class="d">tibble:</text><text font-size="1.67" x="12.024" y="1.67" class="d">32</text><text font-size="1.67" x="15.029999999999998" y="1.67" class="d">×</text><text font-size="1.67" x="17.034" y="1.67" class="d">4</text><text font-size="1.67" x="16.032" y="3.8409999999999997" class="e">make</text><text font-size="1.67" x="28.055999999999997" y="3.8409999999999997" class="e">mpg</text><text font-size="1.67" x="38.07599999999999" y="3.8409999999999997" class="e">disp</text><text font-size="1.67" x="51.102" y="3.8409999999999997" class="e">vs</text><text font-size="1.67" x="10.02" y="6.012" class="f">&lt;vlghtr_t&gt;</text><text font-size="1.67" x="21.041999999999998" y="6.012" class="f">&lt;vlghtr_t&gt;</text><text font-size="1.67" x="32.064" y="6.012" class="f">&lt;vlghtr_t&gt;</text><text font-size="1.67" x="43.086" y="6.012" class="f">&lt;vlghtr_t&gt;</text><text font-size="1.67" x="1.002" y="8.183" class="g">1</text><text font-size="1.67" x="11.021999999999998" y="8.183" class="e">Mazda</text><text font-size="1.67" x="17.034" y="8.183" class="e">RX4</text><text font-size="1.67" x="27.054" y="8.183" class="e">21.0</text><text font-size="1.67" x="37.074" y="8.183" class="e">160.0</text><text font-size="1.67" x="52.104" y="8.183" class="e">0</text><text font-size="1.67" x="1.002" y="10.354" class="g">2</text><text font-size="1.67" x="7.013999999999999" y="10.354" class="e">Mazda</text><text font-size="1.67" x="13.026" y="10.354" class="e">RX4</text><text font-size="1.67" x="17.034" y="10.354" class="e">Wag</text><text font-size="1.67" x="27.054" y="10.354" class="e">21.0</text><text font-size="1.67" x="37.074" y="10.354" class="e">160.0</text><text font-size="1.67" x="52.104" y="10.354" class="e">0</text><text font-size="1.67" x="1.002" y="12.525" class="g">3</text><rect height="2.171" width="10" x="10.02" y="10.855" class="h"></rect><text font-size="1.67" x="10.02" y="12.525" class="e">Datsun 710</text><rect height="2.171" width="4" x="27.054" y="10.855" class="h"></rect><text font-size="1.67" x="27.054" y="12.525" class="e">22.8</text><rect height="2.171" width="5" x="37.074" y="10.855" class="h"></rect><text font-size="1.67" x="37.074" y="12.525" class="e">108.0</text><rect height="2.171" width="1" x="52.104" y="10.855" class="h"></rect><text font-size="1.67" x="52.104" y="12.525" class="e">1</text><text font-size="1.67" x="1.002" y="14.696" class="g">4</text><text font-size="1.67" x="6.012" y="14.696" class="e">Hornet</text><text font-size="1.67" x="13.026" y="14.696" class="e">4</text><text font-size="1.67" x="15.029999999999998" y="14.696" class="e">Drive</text><text font-size="1.67" x="27.054" y="14.696" class="e">21.4</text><text font-size="1.67" x="37.074" y="14.696" class="e">258.0</text><text font-size="1.67" x="52.104" y="14.696" class="e">1</text><text font-size="1.67" x="1.002" y="16.866999999999997" class="g">5</text><text font-size="1.67" x="3.006" y="16.866999999999997" class="e">Hornet</text><text font-size="1.67" x="10.02" y="16.866999999999997" class="e">Sportabout</text><text font-size="1.67" x="27.054" y="16.866999999999997" class="e">18.7</text><text font-size="1.67" x="37.074" y="16.866999999999997" class="e">360.0</text><text font-size="1.67" x="52.104" y="16.866999999999997" class="e">0</text><text font-size="1.67" x="1.002" y="19.037999999999997" class="g">6</text><text font-size="1.67" x="13.026" y="19.037999999999997" class="e">Valiant</text><text font-size="1.67" x="27.054" y="19.037999999999997" class="e">18.1</text><text font-size="1.67" x="37.074" y="19.037999999999997" class="e">225.0</text><text font-size="1.67" x="52.104" y="19.037999999999997" class="e">1</text><text font-size="1.67" x="1.002" y="21.209000000000003" class="g">7</text><text font-size="1.67" x="10.02" y="21.209000000000003" class="e">Duster</text><text font-size="1.67" x="17.034" y="21.209000000000003" class="e">360</text><text font-size="1.67" x="27.054" y="21.209000000000003" class="e">14.3</text><text font-size="1.67" x="37.074" y="21.209000000000003" class="e">360.0</text><text font-size="1.67" x="52.104" y="21.209000000000003" class="e">0</text><text font-size="1.67" x="1.002" y="23.380000000000003" class="g">8</text><text font-size="1.67" x="11.021999999999998" y="23.380000000000003" class="e">Merc</text><text font-size="1.67" x="16.032" y="23.380000000000003" class="e">240D</text><text font-size="1.67" x="27.054" y="23.380000000000003" class="e">24.4</text><text font-size="1.67" x="37.074" y="23.380000000000003" class="e">146.7</text><text font-size="1.67" x="52.104" y="23.380000000000003" class="e">1</text><text font-size="1.67" x="1.002" y="25.550999999999995" class="g">9</text><text font-size="1.67" x="12.024" y="25.550999999999995" class="e">Merc</text><text font-size="1.67" x="17.034" y="25.550999999999995" class="e">230</text><text font-size="1.67" x="27.054" y="25.550999999999995" class="e">22.8</text><text font-size="1.67" x="37.074" y="25.550999999999995" class="e">140.8</text><text font-size="1.67" x="52.104" y="25.550999999999995" class="e">1</text><text font-size="1.67" x="0" y="27.722" class="g">10</text><text font-size="1.67" x="12.024" y="27.722" class="e">Merc</text><text font-size="1.67" x="17.034" y="27.722" class="e">280</text><text font-size="1.67" x="27.054" y="27.722" class="e">19.2</text><text font-size="1.67" x="37.074" y="27.722" class="e">167.6</text><text font-size="1.67" x="52.104" y="27.722" class="e">1</text><text font-size="1.67" x="0" y="29.893" class="d">#</text><text font-size="1.67" x="2.004" y="29.893" class="d">ℹ</text><text font-size="1.67" x="4.008" y="29.893" class="d">22</text><text font-size="1.67" x="7.013999999999999" y="29.893" class="d">more</text><text font-size="1.67" x="12.024" y="29.893" class="d">rows</text><text font-size="1.67" x="0" y="32.064" class="d">#</text><text font-size="1.67" x="2.004" y="32.064" class="d">ℹ</text><text font-size="1.67" x="4.008" y="32.064" class="d">Use</text><text font-size="1.67" x="8.016" y="32.064" class="d">`print(n</text><text font-size="1.67" x="17.034" y="32.064" class="d">=</text><text font-size="1.67" x="19.037999999999997" y="32.064" class="d">...)`</text><text font-size="1.67" x="25.05" y="32.064" class="d">to</text><text font-size="1.67" x="28.055999999999997" y="32.064" class="d">see</text><text font-size="1.67" x="32.064" y="32.064" class="d">more</text><text font-size="1.67" x="37.074" y="32.064" class="d">rows</text></svg></svg></g></svg></svg>