<svg xmlns="http://www.w3.org/2000/svg" xmlns:xlink="http://www.w3.org/1999/xlink" width="840" height="148.55"><rect width="840" height="148.55" rx="0" ry="0" class="a"></rect><svg height="108.55000000000001" viewBox="0 0 80 10.855" width="800" x="20" xmlns="http://www.w3.org/2000/svg" xmlns:xlink="http://www.w3.org/1999/xlink" y="20"><style>.a{fill:rgb(22,27,34)}.b{font-family:'Fira Code',Monaco,Consolas,Menlo,'Bitstream Vera Sans Mono','Powerline Symbols',monospace}.c{fill:transparent}.d{fill:rgb(188,188,188);white-space:pre}.e{fill:rgb(201,209,217);white-space:pre}.f{fill:rgb(148,148,148);white-space:pre}</style><g font-family="&#x27;Fira Code&#x27;,Monaco,Consolas,Menlo,&#x27;Bitstream Vera Sans Mono&#x27;,&#x27;Powerline Symbols&#x27;,monospace" font-size="1.67" class="b"><defs><symbol id="a"><rect height="5" width="80" x="0" y="0" class="c"></rect></symbol></defs><rect height="10.855" width="80" class="a"></rect><svg x="0" y="0" width="80"><svg x="0"><use xlink:href="#a"></use><text font-size="1.67" x="1.002" y="1.67" class="d">8</text><text font-size="1.67" x="11.021999999999998" y="1.67" class="e">Merc</text><text font-size="1.67" x="16.032" y="1.67" class="e">240D</text><text font-size="1.67" x="27.054" y="1.67" class="e">24.4</text><text font-size="1.67" x="37.074" y="1.67" class="e">146.7</text><text font-size="1.67" x="52.104" y="1.67" class="e">1</text><text font-size="1.67" x="1.002" y="3.8409999999999997" class="d">9</text><text font-size="1.67" x="12.024" y="3.8409999999999997" class="e">Merc</text><text font-size="1.67" x="17.034" y="3.8409999999999997" class="e">230</text><text font-size="1.67" x="27.054" y="3.8409999999999997" class="e">22.8</text><text font-size="1.67" x="37.074" y="3.8409999999999997" class="e">140.8</text><text font-size="1.67" x="52.104" y="3.8409999999999997" class="e">1</text><text font-size="1.67" x="0" y="6.012" class="d">10</text><text font-size="1.67" x="12.024" y="6.012" class="e">Merc</text><text font-size="1.67" x="17.034" y="6.012" class="e">280</text><text font-size="1.67" x="27.054" y="6.012" class="e">19.2</text><text font-size="1.67" x="37.074" y="6.012" class="e">167.6</text><text font-size="1.67" x="52.104" y="6.012" class="e">1</text><text font-size="1.67" x="0" y="8.183" class="f">#</text><text font-size="1.67" x="2.004" y="8.183" class="f">ℹ</text><text font-size="1.67" x="4.008" y="8.183" class="f">22</text><text font-size="1.67" x="7.013999999999999" y="8.183" class="f">more</text><text font-size="1.67" x="12.024" y="8.183" class="f">rows</text><text font-size="1.67" x="0" y="10.354" class="f">#</text><text font-size="1.67" x="2.004" y="10.354" class="f">ℹ</text><text font-size="1.67" x="4.008" y="10.354" class="f">Use</text><text font-size="1.67" x="8.016" y="10.354" class="f">`print(n</text><text font-size="1.67" x="17.034" y="10.354" class="f">=</text><text font-size="1.67" x="19.037999999999997" y="10.354" class="f">...)`</text><text font-size="1.67" x="25.05" y="10.354" class="f">to</text><text font-size="1.67" x="28.055999999999997" y="10.354" class="f">see</text><text font-size="1.67" x="32.064" y="10.354" class="f">more</text><text font-size="1.67" x="37.074" y="10.354" class="f">rows</text></svg></svg></g></svg></svg>