<svg xmlns="http://www.w3.org/2000/svg" xmlns:xlink="http://www.w3.org/1999/xlink" width="840" height="213.67999999999998"><rect width="840" height="213.67999999999998" rx="0" ry="0" class="a"></rect><svg height="173.67999999999998" viewBox="0 0 80 17.368" width="800" x="20" xmlns="http://www.w3.org/2000/svg" xmlns:xlink="http://www.w3.org/1999/xlink" y="20"><style>.a{fill:rgb(22,27,34)}.b{font-family:'Fira Code',Monaco,Consolas,Menlo,'Bitstream Vera Sans Mono','Powerline Symbols',monospace}.c{fill:transparent}.d{fill:rgb(148,148,148);white-space:pre}.e{fill:rgb(201,209,217);white-space:pre}.f{fill:rgb(148,148,148);font-style:italic;white-space:pre}.g{fill:rgb(188,188,188);white-space:pre}.h{fill:rgb(255,175,0);white-space:pre}</style><g font-family="&#x27;Fira Code&#x27;,Monaco,Consolas,Menlo,&#x27;Bitstream Vera Sans Mono&#x27;,&#x27;Powerline Symbols&#x27;,monospace" font-size="1.67" class="b"><defs><symbol id="a"><rect height="8" width="80" x="0" y="0" class="c"></rect></symbol></defs><rect height="17.368" width="80" class="a"></rect><svg x="0" y="0" width="80"><svg x="0"><use xlink:href="#a"></use><text font-size="1.67" x="0" y="1.67" class="d">#</text><text font-size="1.67" x="2.004" y="1.67" class="d">A</text><text font-size="1.67" x="4.008" y="1.67" class="d">tibble:</text><text font-size="1.67" x="12.024" y="1.67" class="d">5</text><text font-size="1.67" x="14.027999999999999" y="1.67" class="d">×</text><text font-size="1.67" x="16.032" y="1.67" class="d">4</text><text font-size="1.67" x="15.029999999999998" y="3.8409999999999997" class="e">make</text><text font-size="1.67" x="27.054" y="3.8409999999999997" class="e">mpg</text><text font-size="1.67" x="37.074" y="3.8409999999999997" class="e">disp</text><text font-size="1.67" x="50.1" y="3.8409999999999997" class="e">vs</text><text font-size="1.67" x="9.017999999999999" y="6.012" class="f">&lt;vlghtr_t&gt;</text><text font-size="1.67" x="20.04" y="6.012" class="f">&lt;vlghtr_t&gt;</text><text font-size="1.67" x="31.061999999999998" y="6.012" class="f">&lt;vlghtr_t&gt;</text><text font-size="1.67" x="42.083999999999996" y="6.012" class="f">&lt;vlghtr_t&gt;</text><text font-size="1.67" x="0" y="8.183" class="g">1</text><text font-size="1.67" x="10.02" y="8.183" class="e">Mazda</text><text font-size="1.67" x="16.032" y="8.183" class="e">RX4</text><text font-size="1.67" x="26.052" y="8.183" class="e">21.0</text><text font-size="1.67" x="38.07599999999999" y="8.183" class="e">160</text><text font-size="1.67" x="51.102" y="8.183" class="e">0</text><text font-size="1.67" x="0" y="10.354" class="g">2</text><text font-size="1.67" x="6.012" y="10.354" class="e">Mazda</text><text font-size="1.67" x="12.024" y="10.354" class="e">RX4</text><text font-size="1.67" x="16.032" y="10.354" class="e">Wag</text><text font-size="1.67" x="26.052" y="10.354" class="e">21.0</text><text font-size="1.67" x="38.07599999999999" y="10.354" class="e">160</text><text font-size="1.67" x="51.102" y="10.354" class="e">0</text><text font-size="1.67" x="0" y="12.525" class="g">3</text><text font-size="1.67" x="9.017999999999999" y="12.525" class="h">Datsun</text><text font-size="1.67" x="16.032" y="12.525" class="h">710</text><text font-size="1.67" x="26.052" y="12.525" class="h">22.8</text><text font-size="1.67" x="38.07599999999999" y="12.525" class="h">108</text><text font-size="1.67" x="51.102" y="12.525" class="h">1</text><text font-size="1.67" x="0" y="14.696" class="g">4</text><text font-size="1.67" x="5.01" y="14.696" class="e">Hornet</text><text font-size="1.67" x="12.024" y="14.696" class="e">4</text><text font-size="1.67" x="14.027999999999999" y="14.696" class="e">Drive</text><text font-size="1.67" x="26.052" y="14.696" class="e">21.4</text><text font-size="1.67" x="38.07599999999999" y="14.696" class="e">258</text><text font-size="1.67" x="51.102" y="14.696" class="e">1</text><text font-size="1.67" x="0" y="16.866999999999997" class="g">5</text><text font-size="1.67" x="2.004" y="16.866999999999997" class="e">Hornet</text><text font-size="1.67" x="9.017999999999999" y="16.866999999999997" class="e">Sportabout</text><text font-size="1.67" x="26.052" y="16.866999999999997" class="e">18.7</text><text font-size="1.67" x="38.07599999999999" y="16.866999999999997" class="e">360</text><text font-size="1.67" x="51.102" y="16.866999999999997" class="e">0</text></svg></svg></g></svg></svg>