<svg xmlns="http://www.w3.org/2000/svg" xmlns:xlink="http://www.w3.org/1999/xlink" width="840" height="126.83999999999999"><rect width="840" height="126.83999999999999" rx="0" ry="0" class="a"></rect><svg height="86.83999999999999" viewBox="0 0 80 8.684" width="800" x="20" xmlns="http://www.w3.org/2000/svg" xmlns:xlink="http://www.w3.org/1999/xlink" y="20"><style>.a{fill:rgb(247,247,247)}.b{font-family:'Fira Code',Monaco,Consolas,Menlo,'Bitstream Vera Sans Mono','Powerline Symbols',monospace}.c{fill:transparent}.d{fill:rgb(101,123,131);white-space:pre}.e{fill:rgb(220,50,47);white-space:pre}.f{fill:rgb(255,165,0);white-space:pre}.g{fill:rgb(255,215,0);white-space:pre}.h{fill:rgb(133,153,0);white-space:pre}.i{fill:rgb(38,139,210);white-space:pre}.j{fill:rgb(160,32,240);white-space:pre}.k{fill:rgb(238,130,238);white-space:pre}</style><g font-family="&#x27;Fira Code&#x27;,Monaco,Consolas,Menlo,&#x27;Bitstream Vera Sans Mono&#x27;,&#x27;Powerline Symbols&#x27;,monospace" font-size="1.67" class="b"><defs><symbol id="a"><rect height="4" width="80" x="0" y="0" class="c"></rect></symbol></defs><rect height="8.684" width="80" class="a"></rect><svg x="0" y="0" width="80"><svg x="0"><use xlink:href="#a"></use><text font-size="1.67" x="0" y="1.67" class="d">&lt;highlight&lt;datetime&lt;UTC&gt;&gt;[7]&gt;</text><text font-size="1.67" x="0" y="3.8409999999999997" class="d">[1]</text><text font-size="1.67" x="4.008" y="3.8409999999999997" class="d">NA</text><text font-size="1.67" x="24.048" y="3.8409999999999997" class="e">2</text><text font-size="1.67" x="25.05" y="3.8409999999999997" class="f">0</text><text font-size="1.67" x="26.052" y="3.8409999999999997" class="g">2</text><text font-size="1.67" x="27.054" y="3.8409999999999997" class="h">4</text><text font-size="1.67" x="28.055999999999997" y="3.8409999999999997" class="i">-</text><text font-size="1.67" x="29.058" y="3.8409999999999997" class="j">0</text><text font-size="1.67" x="30.059999999999995" y="3.8409999999999997" class="k">6</text><text font-size="1.67" x="31.061999999999998" y="3.8409999999999997" class="e">-</text><text font-size="1.67" x="32.064" y="3.8409999999999997" class="f">0</text><text font-size="1.67" x="33.065999999999995" y="3.8409999999999997" class="g">5</text><text font-size="1.67" x="35.06999999999999" y="3.8409999999999997" class="i">0</text><text font-size="1.67" x="36.071999999999996" y="3.8409999999999997" class="j">0</text><text font-size="1.67" x="37.074" y="3.8409999999999997" class="k">:</text><text font-size="1.67" x="38.07599999999999" y="3.8409999999999997" class="e">0</text><text font-size="1.67" x="39.077999999999996" y="3.8409999999999997" class="f">0</text><text font-size="1.67" x="40.08" y="3.8409999999999997" class="g">:</text><text font-size="1.67" x="41.082" y="3.8409999999999997" class="h">0</text><text font-size="1.67" x="42.083999999999996" y="3.8409999999999997" class="i">0</text><text font-size="1.67" x="44.087999999999994" y="3.8409999999999997" class="e">2</text><text font-size="1.67" x="45.089999999999996" y="3.8409999999999997" class="f">0</text><text font-size="1.67" x="46.09199999999999" y="3.8409999999999997" class="g">2</text><text font-size="1.67" x="47.093999999999994" y="3.8409999999999997" class="h">4</text><text font-size="1.67" x="48.096" y="3.8409999999999997" class="i">-</text><text font-size="1.67" x="49.098" y="3.8409999999999997" class="j">0</text><text font-size="1.67" x="50.1" y="3.8409999999999997" class="k">6</text><text font-size="1.67" x="51.102" y="3.8409999999999997" class="e">-</text><text font-size="1.67" x="52.104" y="3.8409999999999997" class="f">1</text><text font-size="1.67" x="53.105999999999995" y="3.8409999999999997" class="g">2</text><text font-size="1.67" x="55.10999999999999" y="3.8409999999999997" class="i">0</text><text font-size="1.67" x="56.111999999999995" y="3.8409999999999997" class="j">0</text><text font-size="1.67" x="57.114" y="3.8409999999999997" class="k">:</text><text font-size="1.67" x="58.116" y="3.8409999999999997" class="e">0</text><text font-size="1.67" x="59.117999999999995" y="3.8409999999999997" class="f">0</text><text font-size="1.67" x="60.11999999999999" y="3.8409999999999997" class="g">:</text><text font-size="1.67" x="61.12199999999999" y="3.8409999999999997" class="h">0</text><text font-size="1.67" x="62.123999999999995" y="3.8409999999999997" class="i">0</text><text font-size="1.67" x="0" y="6.012" class="d">[4]</text><text font-size="1.67" x="4.008" y="6.012" class="e">2</text><text font-size="1.67" x="5.01" y="6.012" class="f">0</text><text font-size="1.67" x="6.012" y="6.012" class="g">2</text><text font-size="1.67" x="7.013999999999999" y="6.012" class="h">4</text><text font-size="1.67" x="8.016" y="6.012" class="i">-</text><text font-size="1.67" x="9.017999999999999" y="6.012" class="j">0</text><text font-size="1.67" x="10.02" y="6.012" class="k">6</text><text font-size="1.67" x="11.021999999999998" y="6.012" class="e">-</text><text font-size="1.67" x="12.024" y="6.012" class="f">1</text><text font-size="1.67" x="13.026" y="6.012" class="g">9</text><text font-size="1.67" x="15.029999999999998" y="6.012" class="i">0</text><text font-size="1.67" x="16.032" y="6.012" class="j">0</text><text font-size="1.67" x="17.034" y="6.012" class="k">:</text><text font-size="1.67" x="18.035999999999998" y="6.012" class="e">0</text><text font-size="1.67" x="19.037999999999997" y="6.012" class="f">0</text><text font-size="1.67" x="20.04" y="6.012" class="g">:</text><text font-size="1.67" x="21.041999999999998" y="6.012" class="h">0</text><text font-size="1.67" x="22.043999999999997" y="6.012" class="i">0</text><text font-size="1.67" x="24.048" y="6.012" class="e">2</text><text font-size="1.67" x="25.05" y="6.012" class="f">0</text><text font-size="1.67" x="26.052" y="6.012" class="g">2</text><text font-size="1.67" x="27.054" y="6.012" class="h">4</text><text font-size="1.67" x="28.055999999999997" y="6.012" class="i">-</text><text font-size="1.67" x="29.058" y="6.012" class="j">0</text><text font-size="1.67" x="30.059999999999995" y="6.012" class="k">6</text><text font-size="1.67" x="31.061999999999998" y="6.012" class="e">-</text><text font-size="1.67" x="32.064" y="6.012" class="f">2</text><text font-size="1.67" x="33.065999999999995" y="6.012" class="g">6</text><text font-size="1.67" x="35.06999999999999" y="6.012" class="i">0</text><text font-size="1.67" x="36.071999999999996" y="6.012" class="j">0</text><text font-size="1.67" x="37.074" y="6.012" class="k">:</text><text font-size="1.67" x="38.07599999999999" y="6.012" class="e">0</text><text font-size="1.67" x="39.077999999999996" y="6.012" class="f">0</text><text font-size="1.67" x="40.08" y="6.012" class="g">:</text><text font-size="1.67" x="41.082" y="6.012" class="h">0</text><text font-size="1.67" x="42.083999999999996" y="6.012" class="i">0</text><text font-size="1.67" x="44.087999999999994" y="6.012" class="d">2024-07-03</text><text font-size="1.67" x="55.10999999999999" y="6.012" class="d">00:00:00</text><text font-size="1.67" x="0" y="8.183" class="d">[7]</text><text font-size="1.67" x="4.008" y="8.183" class="e">2</text><text font-size="1.67" x="5.01" y="8.183" class="f">0</text><text font-size="1.67" x="6.012" y="8.183" class="g">2</text><text font-size="1.67" x="7.013999999999999" y="8.183" class="h">0</text><text font-size="1.67" x="8.016" y="8.183" class="i">-</text><text font-size="1.67" x="9.017999999999999" y="8.183" class="j">0</text><text font-size="1.67" x="10.02" y="8.183" class="k">6</text><text font-size="1.67" x="11.021999999999998" y="8.183" class="e">-</text><text font-size="1.67" x="12.024" y="8.183" class="f">0</text><text font-size="1.67" x="13.026" y="8.183" class="g">1</text><text font-size="1.67" x="15.029999999999998" y="8.183" class="i">1</text><text font-size="1.67" x="16.032" y="8.183" class="j">2</text><text font-size="1.67" x="17.034" y="8.183" class="k">:</text><text font-size="1.67" x="18.035999999999998" y="8.183" class="e">0</text><text font-size="1.67" x="19.037999999999997" y="8.183" class="f">0</text><text font-size="1.67" x="20.04" y="8.183" class="g">:</text><text font-size="1.67" x="21.041999999999998" y="8.183" class="h">0</text><text font-size="1.67" x="22.043999999999997" y="8.183" class="i">0</text></svg></svg></g></svg></svg>