<svg xmlns="http://www.w3.org/2000/svg" xmlns:xlink="http://www.w3.org/1999/xlink" width="840" height="105.13"><rect width="840" height="105.13" rx="0" ry="0" class="a"></rect><svg height="65.13" viewBox="0 0 80 6.513" width="800" x="20" xmlns="http://www.w3.org/2000/svg" xmlns:xlink="http://www.w3.org/1999/xlink" y="20"><style>.a{fill:rgb(247,247,247)}.b{font-family:'Fira Code',Monaco,Consolas,Menlo,'Bitstream Vera Sans Mono','Powerline Symbols',monospace}.c{fill:transparent}.d{fill:rgb(101,123,131);white-space:pre}.e{fill:rgb(255,105,180)}</style><g font-family="&#x27;Fira Code&#x27;,Monaco,Consolas,Menlo,&#x27;Bitstream Vera Sans Mono&#x27;,&#x27;Powerline Symbols&#x27;,monospace" font-size="1.67" class="b"><defs><symbol id="a"><rect height="3" width="80" x="0" y="0" class="c"></rect></symbol></defs><rect height="6.513" width="80" class="a"></rect><svg x="0" y="0" width="80"><svg x="0"><use xlink:href="#a"></use><text font-size="1.67" x="0" y="1.67" class="d">&lt;highlight&lt;iv&lt;highlight&lt;double&gt;&gt;&gt;[6]&gt;</text><text font-size="1.67" x="0" y="3.8409999999999997" class="d">[1]</text><text font-size="1.67" x="4.008" y="3.8409999999999997" class="d">[-3,</text><text font-size="1.67" x="9.017999999999999" y="3.8409999999999997" class="d">-2</text><text font-size="1.67" x="12.024" y="3.8409999999999997" class="d">[Even])</text><text font-size="1.67" x="27.054" y="3.8409999999999997" class="d">[-2</text><text font-size="1.67" x="31.061999999999998" y="3.8409999999999997" class="d">[Even],</text><text font-size="1.67" x="39.077999999999996" y="3.8409999999999997" class="d">-1)</text><rect height="2.171" width="15" x="50.1" y="2.171" class="e"></rect><text font-size="1.67" x="50.1" y="3.8409999999999997" class="d">[-1, +2 [Even])</text><text font-size="1.67" x="0" y="6.012" class="d">[4]</text><rect height="2.171" width="14" x="4.008" y="4.342" class="e"></rect><text font-size="1.67" x="4.008" y="6.012" class="d">[0 [Even], +5)</text><rect height="2.171" width="8" x="27.054" y="4.342" class="e"></rect><text font-size="1.67" x="27.054" y="6.012" class="d">[+1, +7)</text><rect height="2.171" width="22" x="50.1" y="4.342" class="e"></rect><text font-size="1.67" x="50.1" y="6.012" class="d">[+2 [Even], +8 [Even])</text></svg></svg></g></svg></svg>